<svg width="59" height="59" viewBox="0 0 59 59" fill="none" xmlns="http://www.w3.org/2000/svg">
<g id="Group 7">
<circle id="Ellipse 3" cx="29.426" cy="29.3908" r="29.2307" fill="#E98880"/>
<path id="Vector" d="M24.2733 18.894C23.8997 17.9915 22.9146 17.5111 21.9732 17.7682L17.703 18.9329C16.8586 19.1658 16.2715 19.9325 16.2715 20.8059C16.2715 32.8111 26.0057 42.5453 38.0108 42.5453C38.8843 42.5453 39.651 41.9581 39.8839 41.1138L41.0485 36.8436C41.3057 35.9022 40.8253 34.9171 39.9227 34.5435L35.2643 32.6024C34.4733 32.2725 33.5562 32.5005 33.0176 33.1653L31.0572 35.5576C27.641 33.9417 24.875 31.1758 23.2591 27.7596L25.6514 25.804C26.3162 25.2606 26.5443 24.3483 26.2143 23.5573L24.2733 18.8989V18.894Z" fill="black"/>
</g>
</svg>
