<svg width="60" height="59" viewBox="0 0 60 59" fill="none" xmlns="http://www.w3.org/2000/svg">
<g id="Group 6">
<circle id="Ellipse 2" cx="29.9377" cy="29.3908" r="29.2307" fill="#E98880"/>
<path id="Vector" d="M19.1125 20.6226C17.8265 20.6226 16.7832 21.6864 16.7832 22.9976C16.7832 23.7447 17.1277 24.4473 17.7149 24.8975L28.2745 32.9725C28.8277 33.3931 29.5848 33.3931 30.138 32.9725L40.6975 24.8975C41.2847 24.4473 41.6293 23.7447 41.6293 22.9976C41.6293 21.6864 40.5859 20.6226 39.3 20.6226H19.1125ZM16.7832 26.1642V36.4558C16.7832 38.2024 18.1759 39.6225 19.889 39.6225H38.5235C40.2365 39.6225 41.6293 38.2024 41.6293 36.4558V26.1642L31.0697 34.2392C29.9633 35.0853 28.4492 35.0853 27.3428 34.2392L16.7832 26.1642Z" fill="black"/>
</g>
</svg>
