<svg width="60" height="60" viewBox="0 0 60 60" fill="none" xmlns="http://www.w3.org/2000/svg">
<g id="Group 5">
<circle id="Ellipse 1" cx="29.969" cy="30.051" r="29.2307" fill="#E98880"/>
<path id="Vector" d="M30.4109 42.6144C32.9492 39.3071 38.7382 31.2913 38.7382 26.7889C38.7382 21.3283 34.483 16.8979 29.2383 16.8979C23.9935 16.8979 19.7383 21.3283 19.7383 26.7889C19.7383 31.2913 25.5273 39.3071 28.0656 42.6144C28.6742 43.4026 29.8023 43.4026 30.4109 42.6144ZM29.2383 23.4919C30.0781 23.4919 30.8836 23.8393 31.4774 24.4576C32.0713 25.0759 32.4049 25.9145 32.4049 26.7889C32.4049 27.6633 32.0713 28.5019 31.4774 29.1202C30.8836 29.7385 30.0781 30.0859 29.2383 30.0859C28.3984 30.0859 27.5929 29.7385 26.9991 29.1202C26.4052 28.5019 26.0716 27.6633 26.0716 26.7889C26.0716 25.9145 26.4052 25.0759 26.9991 24.4576C27.5929 23.8393 28.3984 23.4919 29.2383 23.4919Z" fill="black"/>
</g>
</svg>
