<svg width="28" height="30" viewBox="0 0 28 30" fill="none" xmlns="http://www.w3.org/2000/svg">
<path id="Vector" d="M20.37 17.2125L10.465 6.6L8.89 8.325L17.185 17.2125L12.985 21.7125L14.56 23.4L20.37 17.2125ZM28 15C28 17.05 27.6325 18.9875 26.8975 20.8125C26.1625 22.6375 25.1592 24.2312 23.8875 25.5937C22.6158 26.9562 21.1283 28.0312 19.425 28.8187C17.7217 29.6062 15.9133 30 14 30C12.0633 30 10.2433 29.6062 8.54 28.8187C6.83667 28.0312 5.355 26.9562 4.095 25.5938C2.835 24.2313 1.8375 22.6375 1.1025 20.8125C0.3675 18.9875 -5.66062e-07 17.05 -6.55671e-07 15C-7.46372e-07 12.925 0.367499 10.975 1.1025 9.15C1.8375 7.325 2.835 5.7375 4.095 4.3875C5.355 3.0375 6.83667 1.96875 8.54 1.18125C10.2433 0.393751 12.0633 1.38004e-06 14 1.29539e-06C15.9133 1.21175e-06 17.7217 0.39375 19.425 1.18125C21.1283 1.96875 22.6158 3.0375 23.8875 4.3875C25.1592 5.7375 26.1625 7.325 26.8975 9.15C27.6325 10.975 28 12.925 28 15ZM25.9 15C25.9 11.45 24.7392 8.4375 22.4175 5.9625C20.0958 3.4875 17.29 2.25 14 2.25C10.6867 2.25 7.875 3.4875 5.565 5.9625C3.255 8.4375 2.1 11.45 2.1 15C2.1 18.525 3.255 21.5312 5.565 24.0187C7.875 26.5063 10.6867 27.75 14 27.75C17.29 27.75 20.0958 26.5062 22.4175 24.0187C24.7392 21.5312 25.9 18.525 25.9 15Z" fill="white"/>
</svg>
