<svg width="28" height="30" viewBox="0 0 28 30" fill="none" xmlns="http://www.w3.org/2000/svg">
<path id="Vector" d="M7.63 17.2125L17.535 6.6L19.11 8.325L10.815 17.2125L15.015 21.7125L13.44 23.4L7.63 17.2125ZM3.15903e-06 15C3.24863e-06 17.05 0.367502 18.9875 1.1025 20.8125C1.8375 22.6375 2.84084 24.2313 4.1125 25.5938C5.38417 26.9563 6.87167 28.0313 8.575 28.8188C10.2783 29.6063 12.0867 30 14 30C15.9367 30 17.7567 29.6063 19.46 28.8188C21.1633 28.0313 22.645 26.9562 23.905 25.5938C25.165 24.2312 26.1625 22.6375 26.8975 20.8125C27.6325 18.9875 28 17.05 28 15C28 12.925 27.6325 10.975 26.8975 9.15C26.1625 7.325 25.165 5.7375 23.905 4.3875C22.645 3.0375 21.1633 1.96875 19.46 1.18125C17.7567 0.39375 15.9367 -1.38004e-06 14 -1.29539e-06C12.0867 -1.21175e-06 10.2783 0.39375 8.575 1.18125C6.87167 1.96875 5.38417 3.0375 4.1125 4.3875C2.84083 5.7375 1.8375 7.325 1.1025 9.15C0.367501 10.975 3.06833e-06 12.925 3.15903e-06 15ZM2.1 15C2.1 11.45 3.26083 8.4375 5.5825 5.9625C7.90417 3.4875 10.71 2.25 14 2.25C17.3133 2.25 20.125 3.4875 22.435 5.9625C24.745 8.4375 25.9 11.45 25.9 15C25.9 18.525 24.745 21.5313 22.435 24.0187C20.125 26.5063 17.3133 27.75 14 27.75C10.71 27.75 7.90417 26.5063 5.5825 24.0188C3.26084 21.5313 2.1 18.525 2.1 15Z" fill="white"/>
</svg>
