<svg width="40" height="40" viewBox="0 0 40 40" fill="none" xmlns="http://www.w3.org/2000/svg">
<g id="Group 1">
<circle id="Ellipse 4" cx="20" cy="20" r="20" fill="#E98880"/>
<path id="Vector" d="M29.5331 15.7351C29.5483 15.9429 29.5483 16.1508 29.5483 16.3586C29.5483 22.6968 24.5991 30 15.5533 30C12.7665 30 10.1777 29.2132 8 27.8477C8.39595 27.8922 8.77663 27.907 9.18782 27.907C11.4873 27.907 13.6041 27.15 15.2944 25.8586C13.132 25.8141 11.3198 24.4336 10.6954 22.5336C11 22.5781 11.3046 22.6078 11.6244 22.6078C12.066 22.6078 12.5077 22.5484 12.9188 22.4445C10.665 21.9992 8.97458 20.0695 8.97458 17.7391V17.6797C9.62938 18.036 10.3909 18.2586 11.1979 18.2883C9.87304 17.4273 9.00505 15.9578 9.00505 14.2953C9.00505 13.4047 9.24866 12.5883 9.67508 11.8758C12.0964 14.7851 15.736 16.6851 19.8172 16.8929C19.7411 16.5367 19.6954 16.1656 19.6954 15.7945C19.6954 13.1523 21.8883 11 24.6142 11C26.0304 11 27.3096 11.5789 28.2081 12.5141C29.3198 12.3063 30.3858 11.9055 31.33 11.3563C30.9644 12.4696 30.1878 13.4047 29.1675 13.9984C30.1574 13.8946 31.1168 13.6273 32 13.2563C31.3301 14.2062 30.4924 15.0523 29.5331 15.7351Z" fill="white"/>
</g>
</svg>
