<svg width="71" height="101" viewBox="0 0 71 101" fill="none" xmlns="http://www.w3.org/2000/svg">
<g id="SVGRepo_iconCarrier">
<path id="Vector" d="M39.8893 25.29C39.8893 29.0417 37.7502 32.083 35.1117 32.083C32.4731 32.083 30.334 29.0417 30.334 25.29C30.334 21.5384 32.4731 18.4971 35.1117 18.4971C37.7502 18.4971 39.8893 21.5384 39.8893 25.29Z" fill="#80B0DF"/>
<path id="Vector_2" d="M16.1643 35.1784C15.608 37.5511 16.5099 40.1158 18.1787 40.9067C18.7371 41.1701 19.2999 41.4156 19.8633 41.6556C20.8942 42.0953 22.3364 42.6813 23.9874 43.2682C25.8399 43.9267 28.0436 44.6191 30.2648 45.0901C30.1183 49.1328 29.7622 52.0334 29.4312 53.9581L22.7073 73.0785C21.9207 75.3156 22.5584 78.036 24.1318 79.1545C25.7052 80.2731 27.6184 79.366 28.4051 77.1293L35.1116 58.0583L41.8182 77.1293C42.6049 79.366 44.5179 80.2731 46.0913 79.1545C47.6648 78.036 48.3024 75.3156 47.5157 73.0785L40.7919 53.9581C40.461 52.0334 40.1049 49.1328 39.9584 45.0901C42.1797 44.6191 44.3831 43.9267 46.2356 43.2682C47.8868 42.6813 49.329 42.0953 50.3597 41.6556C50.9193 41.4169 51.478 41.1728 52.0325 40.9122C53.6684 40.1404 54.6048 37.507 54.0589 35.1784C53.5028 32.8058 51.699 31.5235 50.0304 32.314C49.5328 32.548 49.0315 32.7662 48.5295 32.9804C47.5695 33.3898 46.2248 33.936 44.6908 34.4813C41.5506 35.5975 37.8855 36.6104 35.1116 36.6104C32.3377 36.6104 28.6726 35.5975 25.5325 34.4813C23.9983 33.936 22.6536 33.3898 21.6938 32.9804C21.1979 32.7689 20.7031 32.5518 20.2111 32.3226C18.5564 31.5445 16.7189 32.8127 16.1643 35.1784Z" fill="#80B0DF"/>
<path id="Vector_3" fill-rule="evenodd" clip-rule="evenodd" d="M70.1488 50.1967C70.1488 77.7091 54.4624 100.012 35.1125 100.012C15.7625 100.012 0.0761719 77.7091 0.0761719 50.1967C0.0761719 22.6848 15.7625 0.381836 35.1125 0.381836C54.4624 0.381836 70.1488 22.6848 70.1488 50.1967ZM6.46817 50.1967C6.46817 72.6895 19.2927 90.9236 35.1125 90.9236C50.9323 90.9236 63.7569 72.6895 63.7569 50.1967C63.7569 27.7041 50.9323 9.47005 35.1125 9.47005C19.2927 9.47005 6.46817 27.7041 6.46817 50.1967Z" fill="#80B0DF"/>
</g>
</svg>
