<svg width="74" height="104" viewBox="0 0 74 104" fill="none" xmlns="http://www.w3.org/2000/svg">
<g id="SVGRepo_iconCarrier">
<g id="Group">
<path id="Vector" d="M35.5968 7.48343C35.707 7.597 35.7534 7.79931 35.7115 7.98335L34.9014 11.5278C34.8068 11.9403 35.139 12.2833 35.3857 12.0281L37.5062 9.83804C37.6164 9.72405 37.7657 9.72405 37.8761 9.83804L39.9966 12.0283C40.2432 12.2833 40.5754 11.9405 40.4812 11.528L39.6711 7.98357C39.6289 7.79952 39.6752 7.59722 39.7855 7.48365L41.906 5.26383C42.1527 5.00889 42.0262 4.42512 41.7212 4.42512H39.0999C38.9637 4.42512 38.8426 4.32938 38.8007 4.14491L37.9906 0.615117C37.8964 0.203081 37.4861 0.210086 37.3919 0.622122L36.5818 4.1413C36.5395 4.32535 36.4187 4.42512 36.2823 4.42512H33.6609C33.3562 4.42512 33.2293 5.00889 33.4761 5.26383L35.5968 7.48343Z" fill="#80B0DF" stroke="black" stroke-width="0.125"/>
<path id="Vector_2" d="M61.6525 20.003C61.5562 19.8659 61.5329 19.6559 61.5947 19.4835L62.7848 16.1624C62.923 15.7765 62.6328 15.3638 62.3611 15.5604L60.0255 17.2525C59.9042 17.3408 59.7566 17.3073 59.6602 17.1703L57.8068 14.5351C57.5913 14.2283 57.2258 14.4933 57.2734 14.9214L57.6834 18.6024C57.7048 18.7939 57.6367 18.9834 57.5155 19.0713L55.1799 20.7634C54.9082 20.96 54.9722 21.5363 55.2735 21.6038L57.8624 22.1871C57.9974 22.2175 58.103 22.3676 58.1243 22.5591L58.534 26.24C58.5818 26.6684 58.9871 26.7594 59.1254 26.3731L60.3155 23.0524C60.3773 22.8796 60.5106 22.7832 60.6453 22.8136L63.2342 23.3965C63.5355 23.4644 63.7218 22.9446 63.5059 22.6382L61.6525 20.003Z" fill="#80B0DF" stroke="black" stroke-width="0.125"/>
<path id="Vector_3" d="M73.3103 51.2226L70.8686 50.0708C70.7385 50.0107 70.7018 49.839 70.7018 49.6449V45.9179C70.7018 45.4847 70.2603 45.3042 70.0813 45.6551L68.5157 48.6702C68.4353 48.8268 68.2801 48.8928 68.1507 48.8332L65.6515 47.6809C65.3617 47.547 65.1173 48.0189 65.2963 48.3696L66.8358 51.385C66.9157 51.5417 66.9152 51.7539 66.835 51.9108L65.2939 54.9263C65.1149 55.2769 65.3554 55.7488 65.6455 55.6149L68.1383 54.4631C68.268 54.4034 68.4097 54.4688 68.4902 54.6257L70.0816 57.6407C70.2606 57.9914 70.7018 57.8116 70.7018 57.3779V53.6509C70.7018 53.4569 70.7385 53.2851 70.8686 53.2255L73.3361 52.0732C73.6259 51.9399 73.6004 51.3566 73.3103 51.2226Z" fill="#80B0DF" stroke="black" stroke-width="0.125"/>
<path id="Vector_4" d="M19.8198 20.6164C20.1211 20.5485 20.1851 19.9725 19.9137 19.7755L17.5781 18.0835C17.4563 17.9956 17.3884 17.806 17.4102 17.6145L17.8199 13.9336C17.8676 13.5052 17.502 13.2407 17.2865 13.5472L15.4334 16.1825C15.337 16.3196 15.189 16.3529 15.0678 16.2646L12.7319 14.5726C12.4605 14.376 12.1703 14.7887 12.3088 15.1746L13.4986 18.4957C13.5607 18.6683 13.5374 18.878 13.4408 19.0152L11.5874 21.6504C11.3719 21.9567 11.558 22.4768 11.8591 22.4087L14.448 21.8257C14.583 21.7954 14.7157 21.8918 14.7778 22.0646L15.9679 25.3853C16.1065 25.7716 16.5115 25.6805 16.559 25.2522L16.9693 21.5712C16.9906 21.3797 17.0962 21.2297 17.2309 21.1993L19.8198 20.6164Z" fill="#80B0DF" stroke="black" stroke-width="0.125"/>
<path id="Vector_5" d="M9.107 46.9736C9.28601 46.6233 9.04489 46.151 8.75509 46.2854L6.26219 47.4368C6.13245 47.4969 5.99046 47.431 5.91058 47.2742L4.37665 44.2592C4.19764 43.9085 3.81468 44.0883 3.81468 44.522V48.249C3.81468 48.443 3.72002 48.6147 3.58998 48.6744L1.09349 49.8266C0.803692 49.9601 0.801304 50.5435 1.09155 50.6779L3.59057 51.8291C3.72032 51.8891 3.81453 52.0609 3.81453 52.2549V55.9819C3.81453 56.4152 4.19749 56.5956 4.3765 56.2447L5.91402 53.2297C5.99419 53.073 6.13394 53.007 6.26368 53.0671L8.75569 54.2189C9.04579 54.3529 9.28616 53.881 9.10715 53.5303L7.56635 50.5153C7.48617 50.3582 7.48632 50.1459 7.5665 49.989L9.107 46.9736Z" fill="#80B0DF" stroke="black" stroke-width="0.125"/>
<path id="Vector_6" d="M54.2704 52.0773C53.9858 43.3046 50.4241 35.7487 45.2828 31.8336C44.8775 31.5194 44.4596 31.2312 44.033 30.9688C41.9513 29.6822 39.654 28.9683 37.2392 28.9683C28.169 28.9683 20.7633 39.0412 20.2323 51.7514L20.2369 51.7501V51.7932C20.2369 52.2622 20.2212 54.3614 20.2212 54.3614L19.9672 55.1617H21.665C22.3029 52.1898 24.2618 50.1587 26.5727 50.1587C29.4012 50.1587 31.7026 53.5182 31.7026 57.5399C31.7026 61.5611 29.4012 64.7684 26.5727 64.7684C23.8651 64.7684 21.6414 61.7424 21.4567 57.9213H19.4309C19.3878 57.9213 19.3469 58.0196 19.3052 58.0113L17.1742 66.4739C16.875 67.6539 17.4897 68.9599 18.3716 68.9599H20.2067L20.193 82.4371C20.193 85.098 21.7108 87.216 23.5823 87.216H29.6429V99.8876C29.6429 101.862 31.0376 103.349 32.4262 103.349H48.0185C49.4072 103.349 50.5454 101.862 50.5454 99.8876V74.4316C50.5454 70.9594 51.1898 67.569 52.3309 64.498C53.523 61.2902 54.2208 57.6568 54.2859 53.7982C54.2889 53.6046 54.2902 53.4068 54.2902 53.2087C54.2901 52.8302 54.2823 52.4515 54.2704 52.0773ZM37.5136 50.279H36.0629V52.3579C36.0629 53.0835 35.6025 53.6715 35.0925 53.6715C34.5825 53.6715 34.122 53.0835 34.122 52.3579V50.279H32.8079C32.2978 50.279 31.884 49.6244 31.884 48.8992C31.884 48.1741 32.2977 47.5194 32.8079 47.5194H34.122V45.6673C34.122 44.9421 34.5825 44.3537 35.0925 44.3537C35.6025 44.3537 36.0629 44.9419 36.0629 45.6673V47.5194H37.5136C38.0236 47.5194 38.4375 48.1741 38.4375 48.8992C38.4375 49.6244 38.0236 50.279 37.5136 50.279Z" fill="#80B0DF" stroke="black" stroke-width="0.125"/>
<path id="Vector_7" d="M28.8993 60.9196C29.4872 60.0743 29.8569 58.9137 29.8569 57.6244C29.8569 55.0496 28.3855 52.958 26.5746 52.958C25.6776 52.958 24.8614 53.4692 24.2669 54.3051C23.6659 55.1551 23.293 56.3301 23.293 57.6246C23.293 60.1989 24.7642 62.2909 26.5746 62.2909C27.4818 62.2907 28.3046 61.7653 28.8993 60.9196Z" fill="#80B0DF" stroke="black" stroke-width="0.125"/>
</g>
</g>
</svg>
